# xmcd
#
# Track frame offsets: 
#        150
#        16942
#        38311
#        61399
#        78292
#        98871
#        116369
#        138389
#        161512
#        180579
#        199908
#
# Disc length: 3020 seconds
#
# Revision: 0
# Processed by: cddbd v1.5.2PL0 Copyright (c) Steve Scherf et al.
# Submitted via: ExactAudioCopy v1.2
#
DISCID=800bca0b
DTITLE=The Bennett Brothers - Not Made for Hire
DYEAR=2018
DGENRE=Blues
TTITLE0=Junkyard Dog
TTITLE1=Hold On Tight
TTITLE2=I Just Don't Want the Blues Today
TTITLE3=Blues No. 9
TTITLE4=What'd I Do
TTITLE5=Rocking Chair
TTITLE6=How Long
TTITLE7=The Only Way to Be
TTITLE8=Walk With the Devil
TTITLE9=Not Made for Hire
TTITLE10=I Got a Woman
EXTD=
EXTT0=
EXTT1=
EXTT2=
EXTT3=
EXTT4=
EXTT5=
EXTT6=
EXTT7=
EXTT8=
EXTT9=
EXTT10=
PLAYORDER=
